<?xml version="1.0" encoding="utf-8"?>
<!-- Generator: Adobe Illustrator 19.1.0, SVG Export Plug-In . SVG Version: 6.00 Build 0)  -->
<svg version="1.1" id="Layer_1" xmlns="http://www.w3.org/2000/svg" xmlns:xlink="http://www.w3.org/1999/xlink" x="0px" y="0px"
	 viewBox="-1421 1423 36 36" style="enable-background:new -1421 1423 36 36;" xml:space="preserve">
<style type="text/css">
	.st0{fill:#FFFFFF;}
</style>
<path class="st0" d="M-1403,1424.8c-8.9,0-16.2,7.3-16.2,16.2s7.3,16.2,16.2,16.2s16.2-7.3,16.2-16.2S-1394,1424.8-1403,1424.8z
	 M-1399.4,1436.1c-0.7,0-1.4,0-1.7,0c-0.3,0-0.7,0.4-0.7,0.6c0,0.3,0,1.8,0,1.8s2.1,0,2.4,0c-0.1,1.3-0.3,2.6-0.3,2.6h-2.2v7.6h-3.2
	v-7.6h-1.5v-2.6h1.5c0,0,0-1.7,0-2.1s-0.1-2.9,3.2-2.9c0.4,0,1.5,0,2.3,0C-1399.4,1434.5-1399.4,1435.7-1399.4,1436.1
	L-1399.4,1436.1z"/>
</svg>
