<?xml version="1.0" encoding="utf-8"?>
<!-- Generator: Adobe Illustrator 19.1.0, SVG Export Plug-In . SVG Version: 6.00 Build 0)  -->
<svg version="1.1" id="Layer_1" xmlns="http://www.w3.org/2000/svg" xmlns:xlink="http://www.w3.org/1999/xlink" x="0px" y="0px"
	 viewBox="-1421 1423 36 36" style="enable-background:new -1421 1423 36 36;" xml:space="preserve">
<style type="text/css">
	.st0{fill:#FFFFFF;}
</style>
<g>
	<path class="st0" d="M-1403,1424.8c-8.9,0-16.2,7.3-16.2,16.2s7.3,16.2,16.2,16.2s16.2-7.3,16.2-16.2S-1394,1424.8-1403,1424.8z
		 M-1395.9,1445.9c0,1.2-1,2.2-2.2,2.2h-9.7c-1.2,0-2.2-1-2.2-2.2v-5.7h2.9c-0.1,0.3-0.1,0.5-0.1,0.8c0,2.4,1.9,4.3,4.3,4.3
		s4.3-1.9,4.3-4.3c0-0.3,0-0.6-0.1-0.8h2.9L-1395.9,1445.9L-1395.9,1445.9z M-1405.6,1441c0-1.5,1.2-2.6,2.6-2.6
		c1.5,0,2.6,1.2,2.6,2.6c0,1.5-1.2,2.6-2.6,2.6S-1405.6,1442.5-1405.6,1441z M-1395.9,1438.5h-3.6c-0.8-1.1-2-1.8-3.5-1.8
		c-1.4,0-2.7,0.7-3.5,1.8h-3.6v-2.3c0-1.2,1-2.2,2.2-2.2h9.7c1.2,0,2.2,1,2.2,2.2L-1395.9,1438.5L-1395.9,1438.5z"/>
	<path class="st0" d="M-1397.5,1435.1h-1.2c-0.2,0-0.4,0.2-0.4,0.4v1.2c0,0.2,0.2,0.4,0.4,0.4h1.2c0.2,0,0.4-0.2,0.4-0.4v-1.2
		C-1397.1,1435.3-1397.2,1435.1-1397.5,1435.1z"/>
</g>
</svg>
