<?xml version="1.0" encoding="utf-8"?>
<!-- Generator: Adobe Illustrator 19.1.0, SVG Export Plug-In . SVG Version: 6.00 Build 0)  -->
<svg version="1.1" id="Layer_1" xmlns="http://www.w3.org/2000/svg" xmlns:xlink="http://www.w3.org/1999/xlink" x="0px" y="0px"
	 viewBox="0 0 300 52" style="enable-background:new 0 0 300 52;" xml:space="preserve">
<style type="text/css">
	.st0{fill:#FFFFFF;}
</style>
<g>
	<g>
		<path class="st0" d="M20.4,24c0.5,1.1,0.9,2.1,1,3.1c-1,0.4-2.1,0.8-3.2,1c-1.1,0.2-2.3,0.3-3.5,0.3c-1.9,0-3.7-0.3-5.2-0.9
			c-1.5-0.6-2.8-1.5-3.9-2.7c-1.1-1.2-1.9-2.6-2.4-4.3c-0.6-1.7-0.9-3.6-0.9-5.7c0-2.1,0.3-4,0.9-5.8c0.6-1.7,1.4-3.2,2.4-4.4
			C6.7,3.3,8,2.4,9.6,1.8c1.5-0.7,3.2-1,5.1-1c1.4,0,2.6,0.1,3.6,0.3c1,0.2,1.9,0.4,2.7,0.7c0,0.6-0.2,1.1-0.3,1.6
			c-0.2,0.5-0.4,1-0.6,1.5c-0.4-0.1-0.7-0.2-1.1-0.3c-0.3-0.1-0.7-0.2-1.1-0.3c-0.4-0.1-0.8-0.1-1.3-0.2c-0.5,0-1-0.1-1.6-0.1
			c-2.7,0-4.8,0.9-6.3,2.7c-1.5,1.8-2.2,4.5-2.2,7.9c0,1.8,0.2,3.3,0.6,4.6c0.4,1.3,1,2.3,1.8,3.2c0.8,0.8,1.7,1.5,2.8,1.9
			c1.1,0.4,2.3,0.6,3.6,0.6c1,0,2-0.1,2.8-0.3C18.9,24.5,19.7,24.3,20.4,24z"/>
		<path class="st0" d="M43.1,28.3c-1.9,0-3.6-0.3-5-1c-1.4-0.7-2.6-1.6-3.5-2.9c-0.9-1.2-1.6-2.7-2.1-4.4c-0.5-1.7-0.7-3.5-0.7-5.5
			c0-2,0.2-3.8,0.7-5.5c0.5-1.7,1.1-3.1,2.1-4.4s2.1-2.2,3.5-2.9c1.4-0.7,3.1-1,5-1c1.9,0,3.6,0.3,5,1c1.4,0.7,2.6,1.6,3.5,2.9
			s1.6,2.7,2.1,4.4c0.4,1.7,0.7,3.5,0.7,5.5c0,2-0.2,3.8-0.7,5.5c-0.4,1.7-1.1,3.1-2.1,4.4c-0.9,1.2-2.1,2.2-3.5,2.9
			C46.7,27.9,45,28.3,43.1,28.3z M43.1,25c1.2,0,2.3-0.2,3.2-0.7c0.9-0.5,1.6-1.2,2.2-2.1c0.6-0.9,1-2,1.3-3.3
			c0.3-1.3,0.4-2.7,0.4-4.4c0-1.6-0.1-3.1-0.4-4.4c-0.3-1.3-0.7-2.4-1.3-3.3C48,6,47.2,5.3,46.3,4.8c-0.9-0.5-2-0.7-3.2-0.7
			c-1.2,0-2.3,0.2-3.2,0.7C39,5.3,38.3,6,37.7,6.9c-0.6,0.9-1,2-1.3,3.3c-0.3,1.3-0.4,2.7-0.4,4.4c0,1.6,0.1,3.1,0.4,4.4
			c0.3,1.3,0.7,2.4,1.3,3.3c0.6,0.9,1.3,1.6,2.2,2.1C40.8,24.8,41.9,25,43.1,25z"/>
		<path class="st0" d="M67,1.2c0.6-0.1,1.2-0.1,1.9-0.1c0.7,0,1.3,0,1.9,0.1v15.1c0,1.5,0.1,2.8,0.3,3.9c0.2,1.1,0.5,2,1,2.6
			s1,1.2,1.8,1.5c0.7,0.3,1.6,0.5,2.7,0.5c1.1,0,1.9-0.2,2.7-0.5c0.7-0.3,1.3-0.8,1.7-1.5c0.4-0.7,0.8-1.6,1-2.6
			c0.2-1.1,0.3-2.4,0.3-3.9V1.2c0.6-0.1,1.2-0.1,1.9-0.1c0.7,0,1.3,0,1.9,0.1V17c0,1.8-0.2,3.4-0.5,4.8c-0.3,1.4-0.9,2.6-1.6,3.6
			c-0.8,1-1.7,1.7-2.9,2.2c-1.2,0.5-2.7,0.8-4.4,0.8c-1.7,0-3.2-0.3-4.4-0.8c-1.2-0.5-2.2-1.2-2.9-2.2c-0.8-1-1.3-2.1-1.6-3.6
			c-0.3-1.4-0.5-3-0.5-4.8V1.2z"/>
		<path class="st0" d="M99.7,1.2c0.5,0,1-0.1,1.5-0.1c0.4,0,0.9-0.1,1.3-0.1c0.4,0,0.9-0.1,1.4-0.1c0.5,0,1,0,1.6,0
			c1.3,0,2.5,0.1,3.7,0.4c1.2,0.2,2.3,0.7,3.3,1.3c1,0.6,1.7,1.4,2.4,2.5c0.6,1,0.9,2.4,0.9,4c0,1-0.2,1.8-0.5,2.6
			c-0.3,0.8-0.7,1.5-1.2,2.1c-0.5,0.6-1.1,1.2-1.7,1.6c-0.6,0.5-1.2,0.8-1.8,1.1l-0.4,0.2l7.7,11.2c-0.7,0.1-1.4,0.1-2.3,0.1
			c-0.7,0-1.3,0-2-0.1L105,15.5v-0.1l0.3-0.1c0.7-0.2,1.4-0.4,2.1-0.7c0.7-0.3,1.4-0.7,2.1-1.2c0.6-0.5,1.2-1.1,1.6-1.7
			c0.4-0.7,0.6-1.5,0.6-2.5c0-1.8-0.5-3.1-1.6-4c-1-0.9-2.5-1.3-4.2-1.3c-0.4,0-0.8,0-1.2,0c-0.4,0-0.8,0.1-1.2,0.1v23.7
			c-0.3,0-0.6,0-0.9,0.1c-0.3,0-0.6,0-0.9,0c-0.3,0-0.6,0-1,0c-0.3,0-0.7,0-1-0.1V1.2z"/>
		<path class="st0" d="M133.2,4.5h-6.9c0-0.2-0.1-0.5-0.1-0.8c0-0.3,0-0.6,0-0.9c0-0.3,0-0.5,0-0.8c0-0.3,0.1-0.5,0.1-0.8h17.6
			c0,0.2,0.1,0.5,0.1,0.8c0,0.3,0,0.5,0,0.8c0,0.3,0,0.6,0,0.9c0,0.3-0.1,0.6-0.1,0.8H137v23.3c-0.6,0.1-1.2,0.1-1.9,0.1
			c-0.7,0-1.3,0-1.9-0.1V4.5z"/>
		<path class="st0" d="M155.5,1.2c0.3,0,0.6-0.1,0.9-0.1c0.3,0,0.6,0,1,0c0.3,0,0.6,0,1,0c0.3,0,0.6,0.1,0.9,0.1v11h11.3v-11
			c0.3,0,0.6-0.1,0.9-0.1c0.3,0,0.6,0,1,0c0.3,0,0.6,0,1,0c0.3,0,0.6,0.1,0.9,0.1v26.6c-0.3,0-0.6,0.1-0.9,0.1c-0.3,0-0.7,0-1,0
			c-0.3,0-0.6,0-1,0c-0.3,0-0.6-0.1-0.9-0.1V15.5h-11.3v12.3c-0.3,0-0.6,0.1-0.9,0.1c-0.3,0-0.6,0-1,0c-0.3,0-0.6,0-1,0
			c-0.3,0-0.6-0.1-0.9-0.1V1.2z"/>
		<path class="st0" d="M198.5,28.3c-1.9,0-3.6-0.3-5-1c-1.4-0.7-2.6-1.6-3.5-2.9c-0.9-1.2-1.6-2.7-2.1-4.4c-0.5-1.7-0.7-3.5-0.7-5.5
			c0-2,0.2-3.8,0.7-5.5c0.5-1.7,1.1-3.1,2.1-4.4c0.9-1.2,2.1-2.2,3.5-2.9c1.4-0.7,3.1-1,5-1c1.9,0,3.6,0.3,5,1
			c1.4,0.7,2.6,1.6,3.5,2.9c0.9,1.2,1.6,2.7,2.1,4.4c0.4,1.7,0.7,3.5,0.7,5.5c0,2-0.2,3.8-0.7,5.5c-0.4,1.7-1.1,3.1-2.1,4.4
			c-0.9,1.2-2.1,2.2-3.5,2.9C202.1,27.9,200.4,28.3,198.5,28.3z M198.5,25c1.2,0,2.3-0.2,3.2-0.7c0.9-0.5,1.6-1.2,2.2-2.1
			c0.6-0.9,1-2,1.3-3.3c0.3-1.3,0.4-2.7,0.4-4.4c0-1.6-0.1-3.1-0.4-4.4c-0.3-1.3-0.7-2.4-1.3-3.3c-0.6-0.9-1.3-1.6-2.2-2.1
			c-0.9-0.5-2-0.7-3.2-0.7c-1.2,0-2.3,0.2-3.2,0.7c-0.9,0.5-1.6,1.2-2.2,2.1c-0.6,0.9-1,2-1.3,3.3c-0.3,1.3-0.4,2.7-0.4,4.4
			c0,1.6,0.1,3.1,0.4,4.4c0.3,1.3,0.7,2.4,1.3,3.3c0.6,0.9,1.3,1.6,2.2,2.1C196.2,24.8,197.3,25,198.5,25z"/>
		<path class="st0" d="M222.4,1.2c0.6-0.1,1.2-0.1,1.9-0.1c0.7,0,1.3,0,1.9,0.1v15.1c0,1.5,0.1,2.8,0.3,3.9c0.2,1.1,0.5,2,1,2.6
			c0.4,0.7,1,1.2,1.8,1.5c0.7,0.3,1.6,0.5,2.7,0.5c1.1,0,1.9-0.2,2.7-0.5c0.7-0.3,1.3-0.8,1.7-1.5c0.4-0.7,0.8-1.6,1-2.6
			c0.2-1.1,0.3-2.4,0.3-3.9V1.2c0.6-0.1,1.2-0.1,1.9-0.1c0.7,0,1.3,0,1.9,0.1V17c0,1.8-0.2,3.4-0.5,4.8c-0.3,1.4-0.9,2.6-1.6,3.6
			c-0.8,1-1.7,1.7-2.9,2.2c-1.2,0.5-2.7,0.8-4.4,0.8c-1.7,0-3.2-0.3-4.4-0.8c-1.2-0.5-2.2-1.2-2.9-2.2c-0.8-1-1.3-2.1-1.6-3.6
			c-0.3-1.4-0.5-3-0.5-4.8V1.2z"/>
		<path class="st0" d="M254.3,23.8c0.8,0.3,1.7,0.6,2.6,0.8c0.9,0.2,2,0.3,3.3,0.3c2,0,3.5-0.4,4.5-1.2c1-0.8,1.5-1.9,1.5-3.4
			c0-0.7-0.1-1.3-0.3-1.8c-0.2-0.5-0.5-0.9-0.9-1.3c-0.4-0.4-0.9-0.7-1.6-1c-0.6-0.3-1.4-0.6-2.2-1l-2.1-0.9c-0.7-0.3-1.4-0.6-2-1
			c-0.6-0.4-1.1-0.8-1.5-1.3c-0.4-0.5-0.8-1.1-1-1.8c-0.2-0.7-0.4-1.5-0.4-2.4c0-2.2,0.8-4,2.3-5.3c1.5-1.3,3.7-1.9,6.4-1.9
			c1.2,0,2.3,0.1,3.4,0.3c1.1,0.2,2,0.4,2.8,0.7c-0.1,1-0.4,2.1-0.8,3.1c-0.7-0.2-1.4-0.5-2.3-0.7c-0.9-0.2-1.9-0.3-3-0.3
			c-1.6,0-2.8,0.3-3.6,0.9c-0.8,0.6-1.3,1.6-1.3,2.8c0,0.5,0.1,1,0.3,1.4c0.2,0.4,0.5,0.8,0.8,1.1c0.3,0.3,0.8,0.6,1.2,0.8
			c0.5,0.2,1,0.5,1.5,0.7l2.1,0.8c1,0.4,1.9,0.8,2.6,1.2c0.8,0.4,1.4,0.9,2,1.5c0.5,0.6,1,1.3,1.2,2.1c0.3,0.8,0.4,1.7,0.4,2.8
			c0,2.5-0.9,4.5-2.6,6c-1.8,1.5-4.2,2.2-7.4,2.2c-0.8,0-1.5,0-2.1-0.1c-0.6-0.1-1.2-0.1-1.7-0.2c-0.5-0.1-1-0.2-1.5-0.4
			c-0.5-0.1-1-0.3-1.5-0.5c0-0.5,0.2-1.1,0.3-1.7C254,24.9,254.1,24.3,254.3,23.8z"/>
		<path class="st0" d="M282.6,1.2h14.6c0.1,0.5,0.1,1,0.1,1.6c0,0.3,0,0.6,0,0.9c0,0.3,0,0.6-0.1,0.8h-10.8v7.6h8.7
			c0,0.2,0.1,0.5,0.1,0.8c0,0.3,0,0.6,0,0.8c0,0.3,0,0.6,0,0.9c0,0.3-0.1,0.6-0.1,0.8h-8.7v9.1h11.1c0.1,0.5,0.1,1,0.1,1.6
			c0,0.3,0,0.6,0,0.9c0,0.3,0,0.6-0.1,0.8h-14.9V1.2z"/>
	</g>
	<g>
		<path class="st0" d="M127.6,34c0.4-0.1,0.9-0.1,1.5-0.2c0.6,0,1.3-0.1,1.9-0.1c0.8,0,1.5,0.1,2.2,0.2c0.7,0.1,1.2,0.4,1.7,0.7
			c0.5,0.3,0.8,0.7,1.1,1.2c0.3,0.5,0.4,1.1,0.4,1.8c0,0.4-0.1,0.8-0.2,1.2c-0.1,0.4-0.3,0.7-0.5,1c-0.2,0.3-0.5,0.5-0.8,0.7
			c-0.3,0.2-0.6,0.3-0.9,0.4c0.4,0,0.8,0.1,1.2,0.3c0.4,0.2,0.8,0.4,1.1,0.7c0.3,0.3,0.6,0.7,0.8,1.2c0.2,0.5,0.3,1.1,0.3,1.7
			c0,0.8-0.2,1.5-0.5,2.1s-0.8,1-1.3,1.4c-0.6,0.4-1.2,0.6-2,0.8c-0.8,0.2-1.6,0.2-2.4,0.2c-0.5,0-1.1,0-1.8-0.1
			c-0.6-0.1-1.2-0.1-1.8-0.2V34z M131.3,40.4c1,0,1.7-0.2,2.2-0.6c0.5-0.4,0.8-1,0.8-1.9c0-0.8-0.3-1.4-0.8-1.8
			c-0.5-0.4-1.3-0.6-2.2-0.6c-0.3,0-0.6,0-0.8,0c-0.3,0-0.5,0-0.7,0.1v4.8H131.3z M129.8,47.6c0.2,0,0.5,0.1,0.8,0.1
			c0.3,0,0.6,0,0.9,0c0.5,0,1,0,1.4-0.1c0.4-0.1,0.8-0.2,1.2-0.4c0.3-0.2,0.6-0.5,0.8-0.8c0.2-0.3,0.3-0.8,0.3-1.3
			c0-0.5-0.1-1-0.3-1.3c-0.2-0.4-0.4-0.7-0.8-0.9c-0.3-0.2-0.7-0.4-1.1-0.5c-0.4-0.1-0.9-0.1-1.4-0.1h-1.8V47.6z"/>
		<path class="st0" d="M152.1,45.8h-5.8l-1,3.5c-0.2,0-0.4,0-0.6,0.1c-0.2,0-0.4,0-0.6,0c-0.2,0-0.4,0-0.6,0s-0.4,0-0.5-0.1l5-15.3
			c0.2,0,0.4-0.1,0.6-0.1c0.2,0,0.4,0,0.7,0c0.2,0,0.4,0,0.6,0c0.2,0,0.4,0,0.6,0.1l5,15.3c-0.2,0-0.4,0-0.6,0.1c-0.2,0-0.4,0-0.6,0
			c-0.2,0-0.4,0-0.6,0c-0.2,0-0.4,0-0.5-0.1L152.1,45.8z M146.8,43.9h4.7l-2.3-7.8L146.8,43.9z"/>
		<path class="st0" d="M162,34c0.3,0,0.6-0.1,0.9-0.1c0.3,0,0.5-0.1,0.8-0.1c0.2,0,0.5,0,0.8-0.1c0.3,0,0.6,0,0.9,0
			c0.7,0,1.4,0.1,2.2,0.2c0.7,0.1,1.3,0.4,1.9,0.7c0.6,0.4,1,0.8,1.4,1.4c0.3,0.6,0.5,1.4,0.5,2.3c0,0.6-0.1,1.1-0.3,1.5
			c-0.2,0.5-0.4,0.9-0.7,1.2c-0.3,0.4-0.6,0.7-1,0.9c-0.4,0.3-0.7,0.5-1.1,0.6l-0.3,0.1l4.4,6.5c-0.4,0-0.8,0.1-1.3,0.1
			c-0.4,0-0.8,0-1.1-0.1l-4.9-7.1v-0.1l0.2,0c0.4-0.1,0.8-0.2,1.2-0.4c0.4-0.2,0.8-0.4,1.2-0.7c0.4-0.3,0.7-0.6,0.9-1
			c0.2-0.4,0.4-0.9,0.4-1.4c0-1-0.3-1.8-0.9-2.3c-0.6-0.5-1.4-0.7-2.4-0.7c-0.2,0-0.5,0-0.7,0c-0.2,0-0.4,0-0.7,0.1v13.6
			c-0.2,0-0.3,0-0.5,0c-0.2,0-0.4,0-0.5,0s-0.4,0-0.6,0c-0.2,0-0.4,0-0.6-0.1V34z"/>
	</g>
</g>
</svg>
